# xmcd
#
# Track frame offsets:
#	150
#	18195
#	35901
#	51771
#	63713
#	83507
#	99236
#	115884
#	133449
#	148708
#	170624
#	187334
#	204626
#	219483
#
# Disc length: 3132 seconds
#
# Revision: 4
# Processed by: cddbd v1.4PL0 Copyright (c) Steve Scherf et al.
# Submitted via: MusicWizard 6.0.2
#
DISCID=d60c3a0e
DTITLE=Andre Hazes - Met Heel Mijn Hart
DYEAR=1993
DGENRE=Folk
TTITLE0=Ik Dacht Dat Het Uit Was
TTITLE1=Allen Met Jou
TTITLE2=Uit M'n Bol
TTITLE3=Jij Hebt Gelijk M'n Schat
TTITLE4=Wat Ik Ook Doe
TTITLE5=Dat Was Mijn Zomer
TTITLE6='N Afscheidskus
TTITLE7=Mag Ik Dan Voor Altijd Bij Je Blijven
TTITLE8=Nou Ben Ik Aan De Beurt
TTITLE9=Ik Leef M'n Eigen Leven
TTITLE10=Oh Als Jij Eens Wist
TTITLE11=Wees Blij Dat Je Nog Leven Mag
TTITLE12=Laila
TTITLE13=Droomland (Duet Met Paul De Leeuw)
EXTD=
EXTT0=
EXTT1=
EXTT2=
EXTT3=
EXTT4=
EXTT5=
EXTT6=
EXTT7=
EXTT8=
EXTT9=
EXTT10=
EXTT11=
EXTT12=
EXTT13=
PLAYORDER=
